<?xml version="1.0" encoding="iso-8859-1"?>
<!-- Generator: Adobe Illustrator 16.0.0, SVG Export Plug-In . SVG Version: 6.00 Build 0)  -->
<!DOCTYPE svg PUBLIC "-//W3C//DTD SVG 1.1//EN" "http://www.w3.org/Graphics/SVG/1.1/DTD/svg11.dtd">
<svg version="1.1" id="Capa_1" xmlns="http://www.w3.org/2000/svg" xmlns:xlink="http://www.w3.org/1999/xlink" x="0px" y="0px"
	 width="49.999px" height="49.999px" viewBox="0 0 49.999 49.999" style="enable-background:new 0 0 49.999 49.999;"
	 xml:space="preserve">
<g>
	<path d="M46.12,26.928L20.133,0.939c-0.649-0.648-1.7-0.649-2.352,0c-0.648,0.65-0.648,1.704,0,2.353L43.77,29.28
		c3.871,3.869,3.871,10.167,0,14.036c-3.869,3.869-10.165,3.869-14.036-0.001L5.295,18.877c-2.624-2.624-2.624-6.897,0-9.52
		c2.622-2.624,6.896-2.623,9.52,0.001l21.121,21.121c1.31,1.312,1.312,3.443-0.002,4.756c-1.307,1.31-3.438,1.309-4.75-0.003
		L12.697,16.749c-0.65-0.648-1.701-0.649-2.352,0.001c-0.649,0.649-0.649,1.702,0,2.352L28.83,37.587
		c2.607,2.608,6.853,2.611,9.46,0.004c2.608-2.611,2.608-6.856,0-9.466L17.17,7.003c-3.923-3.923-10.307-3.922-14.229,0
		C-0.98,10.926-0.98,17.309,2.943,21.231l24.436,24.438c5.169,5.168,13.576,5.169,18.745,0.001
		C51.292,40.502,51.29,32.097,46.12,26.928z"/>
</g>
<g>
</g>
<g>
</g>
<g>
</g>
<g>
</g>
<g>
</g>
<g>
</g>
<g>
</g>
<g>
</g>
<g>
</g>
<g>
</g>
<g>
</g>
<g>
</g>
<g>
</g>
<g>
</g>
<g>
</g>
</svg>
