<svg id="Capa_1" enable-background="new 0 0 512 512" height="512" viewBox="0 0 512 512" width="512" xmlns="http://www.w3.org/2000/svg"><g><path d="m162.648 45.689.011.019c4.038 7.857 12.03 12.734 20.882 12.734 3.695 0 7.394-.891 10.695-2.574 7.92-4.033 12.841-12.082 12.841-21.005 0-3.681-.887-7.375-2.57-10.69-2.854-5.609-7.723-9.769-13.71-11.712-5.979-1.941-12.353-1.437-17.941 1.417-7.936 4.044-12.861 12.09-12.856 20.994 0 3.668.885 7.35 2.558 10.647.03.057.06.114.09.17zm17.024-18.448c2.022-1.033 4.329-1.215 6.494-.512 2.172.705 3.938 2.214 4.97 4.241.625 1.231.942 2.542.942 3.894 0 3.252-1.781 6.179-4.651 7.64-1.222.623-2.529.939-3.885.939-3.212 0-6.108-1.772-7.558-4.624-.028-.054-.056-.108-.085-.162-.596-1.199-.897-2.473-.897-3.791-.004-3.234 1.784-6.155 4.67-7.625z"/><path d="m95.41 111.194c6.066 0 11.829-2.305 16.227-6.493 8.3-7.907 17.313-15.184 26.791-21.628 10.729-7.295 13.524-21.959 6.23-32.688-3.536-5.205-8.887-8.719-15.067-9.894-6.175-1.174-12.437.128-17.624 3.663-11.587 7.876-22.619 16.781-32.79 26.468-4.552 4.335-7.143 10.183-7.295 16.468-.153 6.284 2.15 12.251 6.486 16.804 4.42 4.638 10.632 7.3 17.042 7.3zm-5.889-29.711c9.579-9.123 19.967-17.508 30.885-24.93 1.429-.974 3.082-1.48 4.774-1.48.534 0 1.072.051 1.608.152 2.24.426 4.18 1.7 5.463 3.59 2.645 3.891 1.633 9.208-2.258 11.853-10.154 6.904-19.811 14.701-28.701 23.17-1.595 1.519-3.684 2.355-5.882 2.355-2.36 0-4.556-.94-6.182-2.647-1.572-1.65-2.407-3.814-2.351-6.093.055-2.278.995-4.399 2.644-5.97z"/><path d="m23.394 230.929c1.603.339 3.24.51 4.866.51 11.056 0 20.733-7.862 23.011-18.693 4.438-21.103 12.119-41.322 22.829-60.097 6.429-11.269 2.488-25.669-8.787-32.101-11.271-6.421-25.666-2.48-32.095 8.785-13.135 23.022-22.556 47.828-28.001 73.726-1.295 6.152-.116 12.439 3.318 17.704 3.435 5.265 8.715 8.876 14.859 10.166zm-3.499-24.782c5.125-24.371 13.99-47.714 26.351-69.38 1.573-2.757 4.462-4.304 7.43-4.304 1.43 0 2.879.36 4.208 1.116 4.087 2.332 5.517 7.553 3.187 11.638-11.483 20.13-19.719 41.812-24.478 64.442-.947 4.504-5.453 7.575-10.106 6.592-2.23-.468-4.144-1.777-5.388-3.685-1.246-1.908-1.673-4.187-1.204-6.419z"/><path d="m47.285 270.434c-.876-12.85-12.1-22.672-25.078-21.881-12.943.883-22.759 12.131-21.881 25.077 3.004 44.079 17.484 86.829 41.875 123.629 4.371 6.594 11.709 10.531 19.63 10.531 4.634 0 9.125-1.356 12.987-3.919 10.812-7.17 13.779-21.801 6.612-32.615-19.89-30.004-31.696-64.868-34.145-100.822zm19.24 120.938c-1.397.928-3.021 1.418-4.694 1.418-2.878 0-5.542-1.427-7.127-3.818-22.957-34.636-36.586-74.873-39.413-116.359-.318-4.695 3.242-8.775 7.879-9.092.179-.011.356-.016.532-.016 4.499 0 8.311 3.465 8.617 7.948 2.625 38.544 15.284 75.921 36.607 108.09 2.599 3.922 1.523 9.227-2.401 11.829z"/><path d="m255.729 464.936c-47.612 0-92.454-15.596-129.676-45.099-10.16-8.061-24.99-6.347-33.06 3.823-3.905 4.925-5.657 11.076-4.935 17.321s3.833 11.834 8.759 15.738c45.627 36.165 100.577 55.281 158.912 55.281 12.976 0 23.532-10.557 23.532-23.532s-10.556-23.532-23.532-23.532zm0 32.064c-54.917 0-106.646-17.994-149.594-52.037-1.786-1.416-2.914-3.442-3.176-5.707-.262-2.264.373-4.493 1.786-6.275 1.686-2.125 4.183-3.232 6.702-3.232 1.855 0 3.723.602 5.286 1.841 39.902 31.628 87.966 48.346 138.996 48.346 4.705 0 8.532 3.828 8.532 8.532s-3.827 8.532-8.532 8.532z"/><path d="m485.711 297.503c-12.466-3.559-25.52 3.681-29.098 16.146-19.667 68.684-74.551 123.568-143.236 143.235-12.469 3.573-19.71 16.627-16.143 29.104 2.876 10.042 12.176 17.056 22.616 17.056 2.19 0 4.373-.307 6.488-.912 84.165-24.102 151.421-91.359 175.524-175.526 3.567-12.472-3.675-25.527-16.151-29.103zm1.73 24.976c-22.689 79.23-86.002 142.543-165.231 165.232-.771.221-1.565.333-2.36.333-3.782 0-7.152-2.544-8.195-6.183-1.294-4.525 1.332-9.261 5.852-10.556 73.619-21.08 132.447-79.908 153.525-153.522 1.074-3.742 4.504-6.187 8.216-6.187.773 0 1.559.106 2.337.328 4.523 1.297 7.149 6.033 5.856 10.555z"/><path d="m375.455 272.032v-32.064c0-8.556-6.961-15.516-15.517-15.516h-72.661v-72.662c0-8.556-6.96-15.516-15.516-15.516h-32.064c-8.556 0-15.516 6.96-15.516 15.516v72.661h-8.532c-4.142 0-7.5 3.358-7.5 7.5s3.358 7.5 7.5 7.5h16.032c4.142 0 7.5-3.358 7.5-7.5v-80.161c0-.285.231-.516.516-.516h32.064c.285 0 .516.231.516.516v80.161c0 4.142 3.358 7.5 7.5 7.5h80.161c.285 0 .517.231.517.516v32.064c0 .285-.232.516-.517.516h-80.161c-4.142 0-7.5 3.358-7.5 7.5v80.161c0 .285-.231.516-.516.516h-32.064c-.285 0-.516-.231-.516-.516v-80.161c0-4.142-3.358-7.5-7.5-7.5h-80.161c-.285 0-.516-.231-.516-.516v-32.064c0-.285.231-.516.516-.516h32.064c4.142 0 7.5-3.358 7.5-7.5s-3.358-7.5-7.5-7.5h-32.064c-8.556 0-15.516 6.96-15.516 15.516v32.064c0 8.556 6.96 15.516 15.516 15.516h72.661v72.661c0 8.556 6.96 15.516 15.516 15.516h32.064c8.556 0 15.516-6.96 15.516-15.516v-72.661h72.661c8.556.001 15.517-6.959 15.517-15.515z"/><path d="m255.729 0c-12.976 0-23.532 10.556-23.532 23.532s10.557 23.532 23.532 23.532c49.935 0 98.332 18.029 136.274 50.767 3.136 2.706 7.872 2.357 10.578-.779s2.357-7.872-.779-10.578c-40.665-35.087-92.542-54.41-146.073-54.41-4.705 0-8.532-3.828-8.532-8.532s3.827-8.532 8.532-8.532c132.888 0 241 108.112 241 241 0 4.705-3.828 8.532-8.532 8.532s-8.532-3.828-8.532-8.532c0-53.532-19.323-105.408-54.411-146.073-2.706-3.136-7.442-3.486-10.578-.779-3.136 2.706-3.485 7.442-.779 10.578 32.738 37.943 50.767 86.339 50.767 136.275 0 12.976 10.557 23.532 23.532 23.532s23.532-10.556 23.532-23.532c.001-141.16-114.84-256.001-255.999-256.001z"/></g></svg>